<mxfile host="app.diagrams.net" agent="Mozilla/5.0 (Windows NT 10.0; Win64; x64) AppleWebKit/537.36 (KHTML, like Gecko) Chrome/133.0.0.0 Safari/537.36" version="26.0.11">
  <diagram name="Page-1" id="P5obk4MaRnUx2_uXo5P3">
    <mxGraphModel grid="1" page="1" gridSize="10" guides="1" tooltips="1" connect="1" arrows="1" fold="1" pageScale="1" pageWidth="827" pageHeight="1169" math="0" shadow="0">
      <root>
        <mxCell id="0" />
        <mxCell id="1" parent="0" />
        <mxCell id="1aq81B-RSWbRpHIz5B7s-1" value="" style="swimlane;startSize=0;" vertex="1" parent="1">
          <mxGeometry x="150" y="120" width="540" height="770" as="geometry" />
        </mxCell>
        <mxCell id="1aq81B-RSWbRpHIz5B7s-4" value="Charger une grille" style="ellipse;whiteSpace=wrap;html=1;" vertex="1" parent="1aq81B-RSWbRpHIz5B7s-1">
          <mxGeometry x="94" y="90" width="120" height="80" as="geometry" />
        </mxCell>
        <mxCell id="1aq81B-RSWbRpHIz5B7s-17" style="edgeStyle=orthogonalEdgeStyle;rounded=0;orthogonalLoop=1;jettySize=auto;html=1;entryX=1;entryY=0.5;entryDx=0;entryDy=0;" edge="1" parent="1aq81B-RSWbRpHIz5B7s-1" source="1aq81B-RSWbRpHIz5B7s-5" target="1aq81B-RSWbRpHIz5B7s-4">
          <mxGeometry relative="1" as="geometry" />
        </mxCell>
        <mxCell id="1aq81B-RSWbRpHIz5B7s-5" value="Sudoku&lt;span style=&quot;color: rgba(0, 0, 0, 0); font-family: monospace; font-size: 0px; text-align: start; text-wrap-mode: nowrap;&quot;&gt;%3CmxGraphModel%3E%3Croot%3E%3CmxCell%20id%3D%220%22%2F%3E%3CmxCell%20id%3D%221%22%20parent%3D%220%22%2F%3E%3CmxCell%20id%3D%222%22%20value%3D%22Actor%22%20style%3D%22shape%3DumlActor%3BverticalLabelPosition%3Dbottom%3BverticalAlign%3Dtop%3Bhtml%3D1%3BoutlineConnect%3D0%3B%22%20vertex%3D%221%22%20parent%3D%221%22%3E%3CmxGeometry%20x%3D%2270%22%20y%3D%22160%22%20width%3D%2230%22%20height%3D%2260%22%20as%3D%22geometry%22%2F%3E%3C%2FmxCell%3E%3C%2Froot%3E%3C%2FmxGraphModel%3E&lt;/span&gt;" style="ellipse;whiteSpace=wrap;html=1;" vertex="1" parent="1aq81B-RSWbRpHIz5B7s-1">
          <mxGeometry x="290" y="30" width="120" height="80" as="geometry" />
        </mxCell>
        <mxCell id="1aq81B-RSWbRpHIz5B7s-18" style="edgeStyle=orthogonalEdgeStyle;rounded=0;orthogonalLoop=1;jettySize=auto;html=1;entryX=1;entryY=0.5;entryDx=0;entryDy=0;" edge="1" parent="1aq81B-RSWbRpHIz5B7s-1" source="1aq81B-RSWbRpHIz5B7s-6" target="1aq81B-RSWbRpHIz5B7s-4">
          <mxGeometry relative="1" as="geometry" />
        </mxCell>
        <mxCell id="1aq81B-RSWbRpHIz5B7s-6" value="Multidoku" style="ellipse;whiteSpace=wrap;html=1;" vertex="1" parent="1aq81B-RSWbRpHIz5B7s-1">
          <mxGeometry x="290" y="140" width="120" height="80" as="geometry" />
        </mxCell>
        <mxCell id="1aq81B-RSWbRpHIz5B7s-10" value="Choisir la méthode de résolution" style="ellipse;whiteSpace=wrap;html=1;" vertex="1" parent="1aq81B-RSWbRpHIz5B7s-1">
          <mxGeometry x="70" y="370" width="130" height="80" as="geometry" />
        </mxCell>
        <mxCell id="1aq81B-RSWbRpHIz5B7s-19" style="edgeStyle=orthogonalEdgeStyle;rounded=0;orthogonalLoop=1;jettySize=auto;html=1;entryX=1;entryY=0.5;entryDx=0;entryDy=0;" edge="1" parent="1aq81B-RSWbRpHIz5B7s-1" source="1aq81B-RSWbRpHIz5B7s-9" target="1aq81B-RSWbRpHIz5B7s-10">
          <mxGeometry relative="1" as="geometry" />
        </mxCell>
        <mxCell id="1aq81B-RSWbRpHIz5B7s-9" value="Déduction" style="ellipse;whiteSpace=wrap;html=1;" vertex="1" parent="1aq81B-RSWbRpHIz5B7s-1">
          <mxGeometry x="290" y="250" width="120" height="80" as="geometry" />
        </mxCell>
        <mxCell id="82Cx2mza5MiDeiUBvuk0-1" style="edgeStyle=orthogonalEdgeStyle;rounded=0;orthogonalLoop=1;jettySize=auto;html=1;" edge="1" parent="1aq81B-RSWbRpHIz5B7s-1" source="1aq81B-RSWbRpHIz5B7s-8">
          <mxGeometry relative="1" as="geometry">
            <mxPoint x="200" y="410" as="targetPoint" />
          </mxGeometry>
        </mxCell>
        <mxCell id="1aq81B-RSWbRpHIz5B7s-8" value="Backtracking" style="ellipse;whiteSpace=wrap;html=1;" vertex="1" parent="1aq81B-RSWbRpHIz5B7s-1">
          <mxGeometry x="290" y="370" width="120" height="80" as="geometry" />
        </mxCell>
        <mxCell id="1aq81B-RSWbRpHIz5B7s-11" value="Appliquer algorithme en tenant compte des contraintes" style="ellipse;whiteSpace=wrap;html=1;" vertex="1" parent="1aq81B-RSWbRpHIz5B7s-1">
          <mxGeometry x="80" y="610" width="160" height="80" as="geometry" />
        </mxCell>
        <mxCell id="1aq81B-RSWbRpHIz5B7s-12" value="Afficher la solution" style="ellipse;whiteSpace=wrap;html=1;" vertex="1" parent="1aq81B-RSWbRpHIz5B7s-1">
          <mxGeometry x="400" y="580" width="120" height="80" as="geometry" />
        </mxCell>
        <mxCell id="82Cx2mza5MiDeiUBvuk0-2" style="edgeStyle=orthogonalEdgeStyle;rounded=0;orthogonalLoop=1;jettySize=auto;html=1;entryX=1;entryY=0.5;entryDx=0;entryDy=0;" edge="1" parent="1aq81B-RSWbRpHIz5B7s-1" source="1aq81B-RSWbRpHIz5B7s-7" target="1aq81B-RSWbRpHIz5B7s-10">
          <mxGeometry relative="1" as="geometry" />
        </mxCell>
        <mxCell id="1aq81B-RSWbRpHIz5B7s-7" value="Solveur combine" style="ellipse;whiteSpace=wrap;html=1;" vertex="1" parent="1aq81B-RSWbRpHIz5B7s-1">
          <mxGeometry x="290" y="490" width="120" height="80" as="geometry" />
        </mxCell>
        <mxCell id="1aq81B-RSWbRpHIz5B7s-24" value="&amp;lt;&amp;lt;include&amp;gt;&amp;gt;" style="endArrow=open;endSize=12;dashed=1;html=1;rounded=0;entryX=0;entryY=0.5;entryDx=0;entryDy=0;exitX=1;exitY=0.5;exitDx=0;exitDy=0;" edge="1" parent="1aq81B-RSWbRpHIz5B7s-1" source="1aq81B-RSWbRpHIz5B7s-11" target="1aq81B-RSWbRpHIz5B7s-12">
          <mxGeometry width="160" relative="1" as="geometry">
            <mxPoint x="230" y="670" as="sourcePoint" />
            <mxPoint x="390" y="670" as="targetPoint" />
          </mxGeometry>
        </mxCell>
        <mxCell id="1aq81B-RSWbRpHIz5B7s-25" value="Afficher un message d&#39;erreur" style="ellipse;whiteSpace=wrap;html=1;" vertex="1" parent="1aq81B-RSWbRpHIz5B7s-1">
          <mxGeometry x="400" y="680" width="120" height="80" as="geometry" />
        </mxCell>
        <mxCell id="1aq81B-RSWbRpHIz5B7s-26" value="&amp;lt;&amp;lt;extend&amp;gt;&amp;gt;" style="endArrow=open;endSize=12;dashed=1;html=1;rounded=0;entryX=1;entryY=1;entryDx=0;entryDy=0;exitX=0;exitY=0.5;exitDx=0;exitDy=0;" edge="1" parent="1aq81B-RSWbRpHIz5B7s-1" source="1aq81B-RSWbRpHIz5B7s-25" target="1aq81B-RSWbRpHIz5B7s-11">
          <mxGeometry width="160" relative="1" as="geometry">
            <mxPoint x="400" y="680" as="sourcePoint" />
            <mxPoint x="240" y="710" as="targetPoint" />
          </mxGeometry>
        </mxCell>
        <mxCell id="1aq81B-RSWbRpHIz5B7s-13" style="edgeStyle=orthogonalEdgeStyle;rounded=0;orthogonalLoop=1;jettySize=auto;html=1;" edge="1" parent="1" source="1aq81B-RSWbRpHIz5B7s-2" target="1aq81B-RSWbRpHIz5B7s-4">
          <mxGeometry relative="1" as="geometry">
            <Array as="points">
              <mxPoint x="170" y="300" />
              <mxPoint x="170" y="250" />
            </Array>
          </mxGeometry>
        </mxCell>
        <mxCell id="1aq81B-RSWbRpHIz5B7s-14" style="edgeStyle=orthogonalEdgeStyle;rounded=0;orthogonalLoop=1;jettySize=auto;html=1;entryX=0;entryY=0.5;entryDx=0;entryDy=0;" edge="1" parent="1" source="1aq81B-RSWbRpHIz5B7s-2" target="1aq81B-RSWbRpHIz5B7s-10">
          <mxGeometry relative="1" as="geometry">
            <Array as="points">
              <mxPoint x="170" y="300" />
              <mxPoint x="170" y="530" />
            </Array>
          </mxGeometry>
        </mxCell>
        <mxCell id="1aq81B-RSWbRpHIz5B7s-2" value="Utilisateur" style="shape=umlActor;verticalLabelPosition=bottom;verticalAlign=top;html=1;outlineConnect=0;" vertex="1" parent="1">
          <mxGeometry x="70" y="270" width="30" height="60" as="geometry" />
        </mxCell>
        <mxCell id="1aq81B-RSWbRpHIz5B7s-15" style="edgeStyle=orthogonalEdgeStyle;rounded=0;orthogonalLoop=1;jettySize=auto;html=1;entryX=0;entryY=0.5;entryDx=0;entryDy=0;" edge="1" parent="1" source="1aq81B-RSWbRpHIz5B7s-3" target="1aq81B-RSWbRpHIz5B7s-11">
          <mxGeometry relative="1" as="geometry" />
        </mxCell>
        <mxCell id="1aq81B-RSWbRpHIz5B7s-3" value="Systeme" style="shape=umlActor;verticalLabelPosition=bottom;verticalAlign=top;html=1;outlineConnect=0;" vertex="1" parent="1">
          <mxGeometry x="70" y="740" width="30" height="60" as="geometry" />
        </mxCell>
      </root>
    </mxGraphModel>
  </diagram>
</mxfile>
